<svg width="17" height="18" viewBox="0 0 17 18" fill="none" xmlns="http://www.w3.org/2000/svg">
<rect x="0.501041" y="16.4843" width="15" height="15" rx="3.5" transform="rotate(-89.8806 0.501041 16.4843)" stroke="white" stroke-opacity="0.16"/>
<path d="M8.12368 12.8369C8.01881 12.9412 7.87682 12.9996 7.7289 12.9993C7.58098 12.999 7.43924 12.94 7.3348 12.8353L4.17841 9.6657C4.0741 9.56082 4.01569 9.41883 4.01599 9.27092C4.0163 9.123 4.07531 8.98126 4.18006 8.87682L7.34963 5.72043C7.45571 5.62211 7.59577 5.56874 7.74038 5.57154C7.885 5.57434 8.02289 5.63309 8.12509 5.73544C8.22701 5.83806 8.28519 5.9762 8.28739 6.12083C8.28958 6.26545 8.23563 6.40529 8.13687 6.51096L5.9219 8.71672L11.459 8.72826C11.607 8.72856 11.7489 8.78767 11.8533 8.89256C11.9578 8.99746 12.0163 9.13955 12.016 9.28759C12.0157 9.43563 11.9566 9.57748 11.8517 9.68194C11.7468 9.7864 11.6047 9.84491 11.4566 9.8446L5.91957 9.83306L8.12533 12.048C8.22964 12.1529 8.28805 12.2949 8.28774 12.4428C8.28743 12.5907 8.22843 12.7325 8.12368 12.8369Z" fill="white"/>
</svg>
