<svg width="11" height="6" viewBox="0 0 11 6" fill="none" xmlns="http://www.w3.org/2000/svg">
<path d="M5.49995 5.64348C5.3945 5.64348 5.29634 5.62666 5.20549 5.593C5.11462 5.55934 5.02824 5.50157 4.94636 5.41968L1.01391 1.48723C0.892752 1.36609 0.830773 1.21381 0.827973 1.0304C0.825158 0.846982 0.887137 0.691895 1.01391 0.565137C1.14067 0.438378 1.29435 0.375 1.47495 0.375C1.65555 0.375 1.80923 0.438378 1.93598 0.565137L5.49995 4.1291L9.06391 0.565137C9.18505 0.443993 9.33733 0.382014 9.52075 0.379199C9.70415 0.376399 9.85923 0.438378 9.98598 0.565137C10.1128 0.691895 10.1761 0.845582 10.1761 1.0262C10.1761 1.2068 10.1128 1.36048 9.98598 1.48723L6.05354 5.41968C5.97165 5.50157 5.88528 5.55934 5.79441 5.593C5.70355 5.62666 5.6054 5.64348 5.49995 5.64348Z" fill="#E0E0E2"/>
</svg>
